<svg width="363" height="81" viewBox="0 0 363 81" fill="none" xmlns="http://www.w3.org/2000/svg">
<g filter="url(#filter0_d_175_162)">
<path d="M281.52 54.0731H317.691V45.7705H293.851C297.139 32.1458 317.28 29.1654 317.28 14.0505C317.28 5.96081 311.936 0 300.633 0C293.645 0 287.48 2.12886 283.369 4.25772L285.836 11.9216C289.535 10.0057 293.851 8.30256 299.194 8.30256C303.305 8.30256 307.21 10.2185 307.21 15.1149C307.21 26.185 283.575 27.0365 281.52 54.0731ZM318.719 40.8741H341.942V54.0731H351.19V40.8741H359V32.7845H351.19V0H344.408L318.719 34.4876V40.8741ZM329.2 33.2102L342.353 14.902C342.353 16.3922 341.942 21.0757 341.942 25.3335V32.9974H335.777C333.927 32.9974 330.433 33.2102 329.2 33.2102Z" fill="#005893"/>
<path d="M13.7174 45.3189V28.667H17.6457C21.1605 28.667 24.055 29.0886 26.1225 30.3533C28.19 31.618 29.4305 33.7258 29.4305 37.0983C29.4305 42.7895 26.1225 45.3189 18.2659 45.3189H13.7174ZM4.20675 53.3286H18.0592C33.5656 53.3286 39.1479 46.3728 39.1479 36.6768C39.1479 30.1425 36.4601 25.716 31.7048 23.1866C27.9833 21.0788 23.228 20.4465 17.4389 20.4465H13.7174V7.79947H34.5994L37.0804 0.000488281H4V53.3286H4.20675ZM45.5572 53.3286H54.6543L66.4392 36.0444C68.7135 32.8827 70.3675 29.7209 71.4013 28.0347H71.608C71.4013 30.3533 71.1945 33.3042 71.1945 36.2552V53.1179H80.4984V15.1769H71.4013L59.6164 32.4611C57.5489 35.6229 55.6881 38.7846 54.6543 40.4709H54.4476C54.6543 38.1523 54.8611 35.2013 54.8611 32.2503V15.3877H45.5572V53.3286ZM96.4183 53.3286H105.929V23.1866H117.094L119.575 15.1769H85.047V23.1866H96.4183V53.3286ZM122.883 72.5099H132.187V53.3286C134.047 53.961 135.908 54.1718 137.976 54.1718C149.76 54.1718 157.41 45.9512 157.41 34.1474C157.41 21.9219 150.381 14.123 136.942 14.123C131.773 14.123 126.811 15.1769 122.676 16.4416V72.5099H122.883ZM132.187 45.1081V22.7651C133.634 22.3435 134.874 22.1327 136.528 22.1327C143.351 22.1327 147.693 25.9268 147.693 34.1474C147.693 41.5248 144.178 46.162 137.149 46.162C135.288 46.162 133.841 45.7404 132.187 45.1081ZM162.993 53.3286H172.09L183.875 36.0444C186.149 32.8827 187.803 29.7209 188.837 28.0347H189.043C188.837 30.3533 188.63 33.3042 188.63 36.2552V53.1179H197.934V15.1769H188.837L177.052 32.4611C174.984 35.6229 173.123 38.7846 172.09 40.4709H171.883C172.09 38.1523 172.296 35.2013 172.296 32.2503V15.3877H162.993V53.3286ZM205.377 53.3286H214.887V37.5199H220.47C221.504 37.5199 222.537 38.5738 223.778 41.1032L228.533 53.3286H238.664L231.841 38.7846C230.601 36.2552 229.36 34.7797 227.499 34.1474V33.9366C230.601 32.0395 231.014 26.5592 232.875 23.819C233.495 22.9759 234.322 22.5543 235.563 22.5543C236.183 22.5543 237.01 22.5543 237.63 22.9759V14.7553C236.596 14.3337 234.736 14.123 233.702 14.123C230.394 14.123 228.326 15.3877 226.879 17.4955C223.778 22.1327 223.778 30.1425 219.229 30.1425H214.887V15.1769H205.377V53.3286ZM259.753 54.1718C264.922 54.1718 269.677 52.4855 272.571 50.3777L269.884 43.8434C267.196 45.3189 264.715 46.3728 261.2 46.3728C254.791 46.3728 250.656 42.1571 250.656 34.3582C250.656 27.4023 254.791 21.9219 261.82 21.9219C265.542 21.9219 268.23 22.9759 270.917 24.8729V16.6524C268.85 15.3877 265.542 14.123 260.787 14.123C249.622 14.123 240.938 22.5543 240.938 34.5689C240.938 45.5297 247.554 54.1718 259.753 54.1718Z" fill="#0BBBEF"/>
</g>
<defs>
<filter id="filter0_d_175_162" x="0" y="0" width="363" height="80.5098" filterUnits="userSpaceOnUse" color-interpolation-filters="sRGB">
<feFlood flood-opacity="0" result="BackgroundImageFix"/>
<feColorMatrix in="SourceAlpha" type="matrix" values="0 0 0 0 0 0 0 0 0 0 0 0 0 0 0 0 0 0 127 0" result="hardAlpha"/>
<feOffset dy="4"/>
<feGaussianBlur stdDeviation="2"/>
<feComposite in2="hardAlpha" operator="out"/>
<feColorMatrix type="matrix" values="0 0 0 0 0 0 0 0 0 0 0 0 0 0 0 0 0 0 0.25 0"/>
<feBlend mode="normal" in2="BackgroundImageFix" result="effect1_dropShadow_175_162"/>
<feBlend mode="normal" in="SourceGraphic" in2="effect1_dropShadow_175_162" result="shape"/>
</filter>
</defs>
</svg>
