<svg width="349" height="105" viewBox="0 0 349 105" fill="none" xmlns="http://www.w3.org/2000/svg">
<g filter="url(#filter0_i_169_114)">
<path fill-rule="evenodd" clip-rule="evenodd" d="M24.1264 0C37.443 0 48.253 10.8099 48.253 24.1264C48.253 37.4429 37.443 48.2529 24.1264 48.2529C10.8099 48.2529 0 37.4429 0 24.1264C0 10.8099 10.8099 0 24.1264 0ZM29.7663 35.8763L24.1264 30.2365L18.4865 35.8763C18.1731 36.1898 17.5465 36.1898 17.2331 35.8763L12.3766 31.0197C12.0632 30.7064 12.0632 30.0798 12.3766 29.7665L18.0165 24.1264L12.3766 18.4865C12.0632 18.1731 12.0632 17.5465 12.3766 17.2332L17.2331 12.3766C17.5465 12.0632 18.1731 12.0632 18.4865 12.3766L24.1264 18.0165L29.7663 12.3766C30.0797 12.0632 30.7065 12.0632 31.0196 12.3766L35.8763 17.2332C36.1896 17.5465 36.1896 18.1731 35.8763 18.4865L30.2363 24.1264L35.8763 29.7665C36.1896 30.0798 36.1896 30.7064 35.8763 31.0197L31.0196 35.8763C30.7065 36.1898 30.0797 36.1898 29.7663 35.8763Z" fill="#008FCA"/>
<path fill-rule="evenodd" clip-rule="evenodd" d="M80.1988 0C93.5155 0 104.325 10.8099 104.325 24.1264C104.325 37.4429 93.5155 48.2529 80.1988 48.2529C66.8823 48.2529 56.0725 37.4429 56.0725 24.1264C56.0725 10.8099 66.8823 0 80.1988 0ZM67.9789 19.8965H92.4189C92.8888 19.8965 93.3588 20.2099 93.3588 20.8365V27.573C93.3588 28.043 92.8888 28.5131 92.4189 28.5131H67.9789C67.3523 28.5131 67.039 28.043 67.039 27.573V20.8365C67.039 20.2099 67.3523 19.8965 67.9789 19.8965Z" fill="#FBBA00"/>
<path fill-rule="evenodd" clip-rule="evenodd" d="M24.1263 56.0708C37.4429 56.0708 48.2527 66.8808 48.2527 80.1973C48.2527 93.5137 37.4429 104.324 24.1263 104.324C10.8098 104.324 0 93.5137 0 80.1973C0 66.8808 10.8098 56.0708 24.1263 56.0708ZM11.8991 68.7594H36.339C36.809 68.7594 37.2789 69.0729 37.2789 69.6996V76.4361C37.2789 76.906 36.809 77.2195 36.339 77.2195H11.8991C11.2724 77.2195 10.9593 76.906 10.9593 76.4361V69.6996C10.9593 69.0729 11.2724 68.7594 11.8991 68.7594ZM11.8991 83.0161H36.339C36.809 83.0161 37.2789 83.486 37.2789 83.956V90.6926C37.2789 91.1626 36.809 91.6325 36.339 91.6325H11.8991C11.2724 91.6325 10.9593 91.1626 10.9593 90.6926V83.956C10.9593 83.486 11.2724 83.0161 11.8991 83.0161Z" fill="#3D935E"/>
<path fill-rule="evenodd" clip-rule="evenodd" d="M80.199 56.0708C93.5155 56.0708 104.326 66.8808 104.326 80.1973C104.326 93.5137 93.5155 104.324 80.199 104.324C66.8824 104.324 56.0725 93.5137 56.0725 80.1973C56.0725 66.8808 66.8824 56.0708 80.199 56.0708ZM75.9617 92.4176V84.4277H67.9718C67.5017 84.4277 67.0318 84.1142 67.0318 83.4876V76.7511C67.0318 76.2811 67.5017 75.8109 67.9718 75.8109H75.9617V67.9778C75.9617 67.3511 76.275 67.0377 76.9017 67.0377H83.6383C84.1082 67.0377 84.5781 67.3511 84.5781 67.9778V75.8109H92.4115C93.0382 75.8109 93.3514 76.2811 93.3514 76.7511V83.4876C93.3514 84.1142 93.0382 84.4277 92.4115 84.4277H84.5781V92.4176C84.5781 92.8875 84.1082 93.3575 83.6383 93.3575H76.9017C76.275 93.3575 75.9617 92.8875 75.9617 92.4176Z" fill="#E41D36"/>
<path d="M141.971 54.1085C141.971 51.675 141.322 49.7282 140.349 48.268C139.213 46.808 137.59 46.1591 135.481 46.1591C134.833 46.1591 134.184 46.1591 133.697 46.3212C133.048 46.3212 132.561 46.3212 132.237 46.4834V60.4353C132.724 60.5976 133.211 60.9219 134.021 61.0842C134.833 61.4088 135.644 61.4088 136.455 61.4088C140.024 61.4088 141.971 58.9754 141.971 54.1085ZM149.758 53.7838C149.758 55.893 149.595 57.8395 148.947 59.624C148.46 61.2465 147.649 62.8687 146.675 64.0043C145.702 65.3022 144.404 66.2757 142.944 66.9245C141.484 67.5734 139.862 67.8979 137.915 67.8979C136.78 67.8979 135.806 67.8979 134.833 67.7357C133.859 67.4113 133.048 67.0868 132.237 66.7623V76.9829H124.449V41.1299C125.099 40.9676 125.91 40.8056 126.883 40.4809C127.695 40.3186 128.668 40.1566 129.642 39.9943C130.615 39.9943 131.588 39.832 132.724 39.6697C133.697 39.6697 134.67 39.6697 135.644 39.6697C137.915 39.6697 139.862 39.9943 141.646 40.6432C143.431 41.2922 144.891 42.2654 146.026 43.401C147.325 44.6989 148.135 46.1591 148.784 47.9436C149.434 49.7282 149.758 51.675 149.758 53.7838ZM169.874 46.9701C169.226 46.808 168.414 46.6457 167.441 46.4834C166.467 46.3212 165.495 46.1591 164.521 46.1591C164.034 46.1591 163.385 46.3212 162.736 46.3212C162.088 46.4834 161.601 46.4835 161.114 46.6457V67.4113H153.489V41.6165C154.787 41.1299 156.41 40.8056 158.356 40.3186C160.303 39.832 162.411 39.6697 164.683 39.6697C165.007 39.6697 165.495 39.6697 166.143 39.6697C166.792 39.832 167.279 39.832 167.927 39.9943C168.577 39.9943 169.064 40.1566 169.712 40.3186C170.199 40.3186 170.686 40.4809 171.172 40.6432L169.874 46.9701ZM198.589 53.7838C198.589 55.893 198.264 57.8395 197.616 59.624C196.967 61.4088 195.994 63.031 194.857 64.1666C193.722 65.4645 192.262 66.4378 190.64 67.0868C189.018 67.8979 187.234 68.2223 185.124 68.2223C183.177 68.2223 181.393 67.8979 179.771 67.0868C177.986 66.4378 176.688 65.4645 175.552 64.1666C174.255 63.031 173.443 61.4088 172.795 59.624C172.146 57.8395 171.821 55.893 171.821 53.7838C171.821 51.675 172.146 49.7282 172.795 47.9436C173.443 46.1591 174.417 44.6989 175.552 43.401C176.688 42.1031 178.149 41.2922 179.771 40.4809C181.393 39.832 183.177 39.5077 185.124 39.5077C187.071 39.5077 189.018 39.832 190.64 40.4809C192.262 41.2922 193.56 42.1031 194.857 43.401C195.994 44.6989 196.804 46.1591 197.616 47.9436C198.264 49.7282 198.589 51.675 198.589 53.7838ZM190.64 53.7838C190.64 51.3504 190.153 49.5659 189.18 48.1059C188.206 46.808 186.909 46.1591 185.124 46.1591C183.34 46.1591 182.041 46.808 181.068 48.1059C180.095 49.5659 179.608 51.3504 179.608 53.7838C179.608 56.2173 180.095 58.0018 181.068 59.462C182.041 60.9219 183.34 61.5708 185.124 61.5708C186.909 61.5708 188.206 60.9219 189.18 59.462C190.153 58.0018 190.64 56.2173 190.64 53.7838ZM208.81 53.6215C208.81 56.055 209.296 58.0018 210.432 59.2997C211.405 60.7599 213.027 61.5708 215.137 61.5708C215.786 61.5708 216.434 61.5708 217.084 61.4088C217.733 61.4088 218.219 61.4088 218.543 61.2465V47.2947C218.056 46.9701 217.408 46.6457 216.596 46.4834C215.786 46.3212 215.137 46.1591 214.326 46.1591C210.595 46.1591 208.81 48.5925 208.81 53.6215ZM226.168 66.6C225.519 66.7623 224.709 66.9244 223.897 67.0868C222.924 67.4113 221.95 67.5734 220.977 67.7357C220.003 67.7357 219.03 67.8979 218.056 68.0602C217.083 68.0602 216.111 68.0602 215.137 68.0602C212.865 68.0602 210.918 67.7357 209.134 67.0868C207.349 66.4378 205.889 65.4645 204.592 64.3289C203.457 63.031 202.483 61.5708 201.833 59.7863C201.185 58.1641 200.86 56.2173 200.86 53.9462C200.86 51.837 201.185 49.7282 201.672 47.9436C202.32 46.1591 203.132 44.6989 204.105 43.401C205.241 42.2654 206.376 41.2922 207.998 40.6432C209.458 39.9943 211.08 39.6697 213.027 39.6697C214.164 39.6697 215.137 39.832 215.948 39.9943C216.759 40.1566 217.733 40.4809 218.543 40.8056V28.4759L226.168 27.3403V66.6ZM241.58 62.0575C242.392 62.0575 243.041 62.0575 243.851 62.0575C244.501 62.0575 244.987 61.8954 245.474 61.8954V56.055C245.149 55.893 244.663 55.893 244.014 55.7307C243.364 55.7307 242.878 55.7307 242.392 55.7307C241.58 55.7307 240.932 55.7307 240.282 55.893C239.633 55.893 239.147 56.055 238.66 56.3796C238.173 56.5419 237.687 56.8662 237.525 57.3529C237.2 57.6775 237.038 58.1641 237.038 58.813C237.038 60.1109 237.525 60.9219 238.335 61.4088C239.147 61.8954 240.282 62.0575 241.58 62.0575ZM240.932 39.5077C243.364 39.5077 245.149 39.832 246.772 40.3186C248.231 40.8056 249.368 41.4542 250.341 42.4278C251.315 43.401 251.963 44.6989 252.287 45.9968C252.611 47.457 252.935 48.917 252.935 50.7015V66.6C251.801 66.9244 250.178 67.2491 248.231 67.5734C246.284 67.898 243.851 68.0602 241.094 68.0602C239.309 68.0602 237.687 67.898 236.389 67.5734C234.929 67.2491 233.631 66.7623 232.657 65.9511C231.522 65.3021 230.71 64.3289 230.224 63.1933C229.738 62.0575 229.413 60.7599 229.413 59.1374C229.413 57.5152 229.738 56.055 230.387 55.0817C231.035 53.9462 231.847 52.9726 232.982 52.324C233.956 51.675 235.253 51.1881 236.551 51.0261C238.011 50.7015 239.472 50.5391 240.932 50.5391C241.905 50.5391 242.716 50.5392 243.527 50.7015C244.338 50.7015 244.987 50.8638 245.474 51.0261V50.2148C245.474 48.917 244.987 47.9436 244.338 47.1324C243.527 46.3212 242.067 45.8345 240.12 45.8345C238.823 45.8345 237.525 45.9968 236.226 46.1591C234.929 46.3212 233.793 46.6457 232.982 46.9701L232.009 40.8056C232.334 40.6432 232.982 40.4809 233.631 40.3186C234.279 40.1566 235.091 39.9943 235.903 39.9943C236.551 39.832 237.525 39.6697 238.335 39.6697C239.147 39.5077 240.12 39.5077 240.932 39.5077ZM272.565 52.9726C272.565 50.5392 272.241 48.7546 271.594 47.7814C270.945 46.6457 269.809 46.1591 268.348 46.1591C267.861 46.1591 267.375 46.1591 266.726 46.3212C266.238 46.3212 265.752 46.3212 265.266 46.4834V67.4113H257.642V41.1299C258.29 40.9676 258.939 40.8056 259.913 40.6432C260.724 40.4809 261.696 40.3186 262.671 40.1566C263.643 39.9943 264.618 39.832 265.752 39.6697C266.726 39.6697 267.699 39.6697 268.836 39.6697C270.78 39.6697 272.403 39.832 273.541 40.3186C274.837 40.8056 275.811 41.4542 276.622 42.1031C277.758 41.2922 278.893 40.6432 280.354 40.3186C281.812 39.832 283.111 39.6697 284.41 39.6697C286.519 39.6697 288.301 39.832 289.763 40.4809C291.062 41.1299 292.195 41.9411 293.009 43.0767C293.818 44.2123 294.467 45.5101 294.791 46.9701C295.115 48.5925 295.28 50.2148 295.28 51.9993V67.4113H287.492V52.9726C287.492 50.5392 287.167 48.7546 286.519 47.7814C285.869 46.6457 284.896 46.1591 283.273 46.1591C282.787 46.1591 282.301 46.3212 281.488 46.4834C280.84 46.6457 280.192 46.9701 279.705 47.2947C279.868 48.1059 280.03 48.9169 280.192 49.7282C280.192 50.7015 280.192 51.5127 280.192 52.6483V67.4113H272.565V52.9726ZM323.182 66.4378C321.886 66.9244 320.263 67.2491 318.153 67.5734C316.044 67.898 313.935 68.0602 311.663 68.0602C309.231 68.0602 307.446 67.7357 305.823 67.0868C304.365 66.4378 303.065 65.6268 302.256 64.491C301.28 63.3553 300.633 62.0575 300.308 60.4353C299.822 58.9754 299.66 57.1909 299.66 55.406V40.1566H307.446V54.4328C307.446 56.8662 307.77 58.8131 308.418 59.7863C309.069 60.9219 310.203 61.5708 312.15 61.5708C312.636 61.5708 313.287 61.4088 313.773 61.4088C314.421 61.4088 315.07 61.2465 315.558 61.2465V40.1566H323.182V66.4378ZM335.999 61.8954C337.459 61.8954 338.432 61.7331 339.08 61.5708C339.569 61.2465 339.893 60.7599 339.893 59.9486C339.893 59.2997 339.569 58.6507 338.755 58.3264C337.946 57.8395 336.809 57.1908 335.35 56.7039C334.051 56.2173 332.918 55.7307 331.942 55.244C330.97 54.7574 330.157 54.2705 329.51 53.6215C328.861 52.8106 328.21 51.9993 327.886 51.1881C327.562 50.2148 327.238 49.0793 327.238 47.7814C327.238 45.1855 328.21 43.239 330.157 41.7788C332.104 40.1566 334.7 39.5077 337.946 39.5077C339.569 39.5077 341.189 39.6697 342.812 39.9943C344.273 40.1566 345.408 40.4809 346.382 40.9676L345.083 46.9701C344.111 46.6457 343.136 46.3212 342.163 45.9968C341.027 45.8346 339.893 45.6724 338.594 45.6724C336.161 45.6724 334.862 46.3212 334.862 47.7814C334.862 48.1059 335.023 48.268 335.023 48.5925C335.188 48.7546 335.35 49.0793 335.674 49.2415C335.999 49.4036 336.485 49.7282 336.97 50.0525C337.459 50.2148 338.108 50.5392 339.08 50.8638C340.703 51.5127 342.163 52.1616 343.136 52.6483C344.273 53.2972 345.245 53.9462 345.893 54.5951C346.382 55.406 346.868 56.2173 347.193 57.0285C347.355 57.8395 347.517 58.8131 347.517 59.9486C347.517 62.7064 346.544 64.6532 344.597 66.1134C342.488 67.4113 339.569 68.2223 335.999 68.2223C333.565 68.2223 331.456 67.898 329.995 67.5734C328.372 67.0868 327.238 66.7623 326.59 66.4378L327.886 60.2729C329.185 60.7599 330.481 61.2465 331.942 61.4088C333.241 61.7331 334.7 61.8954 335.999 61.8954Z" fill="#FEFEFE"/>
</g>
<defs>
<filter id="filter0_i_169_114" x="0" y="0" width="348.365" height="109" filterUnits="userSpaceOnUse" color-interpolation-filters="sRGB">
<feFlood flood-opacity="0" result="BackgroundImageFix"/>
<feBlend mode="normal" in="SourceGraphic" in2="BackgroundImageFix" result="shape"/>
<feColorMatrix in="SourceAlpha" type="matrix" values="0 0 0 0 0 0 0 0 0 0 0 0 0 0 0 0 0 0 127 0" result="hardAlpha"/>
<feOffset dy="4"/>
<feGaussianBlur stdDeviation="2"/>
<feComposite in2="hardAlpha" operator="arithmetic" k2="-1" k3="1"/>
<feColorMatrix type="matrix" values="0 0 0 0 0 0 0 0 0 0 0 0 0 0 0 0 0 0 0.5 0"/>
<feBlend mode="normal" in2="shape" result="effect1_innerShadow_169_114"/>
</filter>
</defs>
</svg>
